<svg xmlns="http://www.w3.org/2000/svg" width="76" height="39.97" viewBox="0 0 76 39.97">
  <defs>
    <style>
      .cls-1 {
        fill: #f6c640;
        fill-rule: evenodd;
      }
    </style>
  </defs>
  <path id="Forma_1" data-name="Forma 1" class="cls-1" d="M855.159,1688.6L866,1671.12l-8.028-1.98-8.28,7.86c-5.629-1.98-38.865-13.45-49.428-13.12-6.423.2-9.555,1.25-10.159,3.41-0.48,1.72.788,3.51,3.88,5.48,4.58,2.92,15.794,5.83,18.159,6.42l17.606,21.23h9.771l-0.45-14.5Zm-24.177,9.23-17.37-20.94-0.421-.11c-0.132-.03-13.134-3.22-17.793-6.19-2.74-1.74-2.775-2.6-2.775-2.61s0.649-1.29,7.722-1.51l0.39-.01c11.363,0,48.462,13.11,48.836,13.24l0.761,0.27,8.406-7.98,3.167,0.78-8.053,12.98-17.5-2.91,0.465,14.99h-5.839Zm1.775-33.22,6.91,1.48-1.733,3.58,2.356,1.11,3.165-6.53-10.585-2.26-14.918,1.9,0.334,2.56Zm11.543,35.67,16.954,1.7,0.263-2.57-16.954-1.71Zm11.236-6.76-11.334-1.14-0.262,2.58,11.331,1.14Z" transform="translate(-790 -1662)"/>
</svg>
