<svg xmlns="http://www.w3.org/2000/svg" width="59" height="59" viewBox="0 0 59 59"><defs><style>.cls-1{fill:#f6c640;fill-rule:evenodd}</style></defs><path id="Forma_1" data-name="Forma 1" class="cls-1" d="M386.954 1681.61l-5.7 4.56a.915.915 0 0 1-1.49-.71v-3.92a5.71 5.71 0 0 1-3.09-1.59v-.01a5.652 5.652 0 0 1-1.669-4.01v-20.24a5.676 5.676 0 0 1 1.669-4.02l.065-.06a5.69 5.69 0 0 1 3.952-1.61h33.338a5.7 5.7 0 0 1 5.684 5.69v20.24a5.656 5.656 0 0 1-1.668 4.01l-.066.06a5.638 5.638 0 0 1-3.95 1.61h-27.07zm-5.346 1.93l4.382-3.51a.94.94 0 0 1 .649-.26h27.385a3.875 3.875 0 0 0 2.669-1.08l.041-.05a3.846 3.846 0 0 0 1.129-2.71v-20.24a3.839 3.839 0 0 0-3.841-3.84h-33.336a3.827 3.827 0 0 0-2.669 1.08l-.042.04a3.849 3.849 0 0 0-1.13 2.72v20.24a3.843 3.843 0 0 0 1.13 2.71 3.855 3.855 0 0 0 2.69 1.13h.023a.92.92 0 0 1 .922.92v2.85zm-4.874-31.93l.194-.26c-.34-.34.169-.04-.194.26zm41.24 28.39l-.266.18c.339.34-.095.12.266-.18zm-34.907-21.01a.925.925 0 0 1 0-1.85h28.576a.925.925 0 0 1 0 1.85h-28.576zm0 5.69a.925.925 0 0 1 0-1.85h28.576a.925.925 0 0 1 0 1.85h-28.576zm39.292 16.94a.925.925 0 0 1 0-1.85h3.572a.92.92 0 0 1 .921.92.93.93 0 0 1-.921.93h-3.572zm-25 5.68a.92.92 0 1 1 0-1.84h28.576a.92.92 0 1 1 0 1.84h-28.58zm0 5.69a.925.925 0 0 1 0-1.85h28.576a.925.925 0 0 1 0 1.85h-28.58zm0 5.68a.92.92 0 1 1 0-1.84H417.6a.92.92 0 1 1 0 1.84h-20.245zm-8.067-13.22a.923.923 0 0 1 1.845 0v13.1a3.811 3.811 0 0 0 1.129 2.71l.043.05a3.831 3.831 0 0 0 2.669 1.08h27.385a.906.906 0 0 1 .649.27l4.386 3.51v-2.86a.917.917 0 0 1 .92-.91v-.01a3.821 3.821 0 0 0 2.713-1.13 3.811 3.811 0 0 0 1.129-2.71v-19.05a3.846 3.846 0 0 0-1.129-2.71l-.042-.04a3.839 3.839 0 0 0-2.669-1.09h-4.763a.92.92 0 1 1 0-1.84h4.763a5.641 5.641 0 0 1 3.95 1.61l.065.06a5.67 5.67 0 0 1 1.665 4.01v19.05a5.676 5.676 0 0 1-1.669 4.02 5.656 5.656 0 0 1-3.093 1.59v3.92a.956.956 0 0 1-.2.58.929.929 0 0 1-1.29.14l-5.7-4.56h-27.07a5.681 5.681 0 0 1-3.95-1.61l-.066-.06a5.671 5.671 0 0 1-1.668-4.02v-13.1zm-6.221-15.09a.92.92 0 1 1 0-1.84h20.241a.92.92 0 1 1 0 1.84h-20.245z" transform="translate(-375 -1650)"/></svg>