<svg xmlns="http://www.w3.org/2000/svg" width="59" height="59" viewBox="0 0 59 59">
  <defs>
    <style>
      .cls-1 {
        fill: #f6c640;
        fill-rule: evenodd;
      }
    </style>
  </defs>
  <path id="Forma_1" data-name="Forma 1" class="cls-1" d="M386.954,1681.61l-5.7,4.56a0.915,0.915,0,0,1-1.49-.71h0v-3.92a5.71,5.71,0,0,1-3.09-1.59l0-.01h0a5.652,5.652,0,0,1-1.669-4.01v-20.24a5.676,5.676,0,0,1,1.669-4.02l0.065-.06a5.69,5.69,0,0,1,3.952-1.61h33.338a5.7,5.7,0,0,1,5.684,5.69v20.24a5.656,5.656,0,0,1-1.668,4.01l-0.066.06a5.638,5.638,0,0,1-3.95,1.61h-27.07Zm-5.346,1.93,4.382-3.51a0.94,0.94,0,0,1,.649-0.26h27.385a3.875,3.875,0,0,0,2.669-1.08l0.041-.05a3.846,3.846,0,0,0,1.129-2.71v-20.24a3.839,3.839,0,0,0-3.841-3.84H380.686a3.827,3.827,0,0,0-2.669,1.08l-0.042.04a3.849,3.849,0,0,0-1.13,2.72v20.24a3.843,3.843,0,0,0,1.13,2.71h0a3.855,3.855,0,0,0,2.69,1.13h0.023a0.92,0.92,0,0,1,.922.92v2.85h0Zm-4.874-31.93,0.194-.26c-0.34-.34.169-0.04-0.194,0.26h0Zm41.24,28.39-0.266.18C418.047,1680.52,417.613,1680.3,417.974,1680Zm-34.907-21.01a0.925,0.925,0,0,1,0-1.85h28.576a0.925,0.925,0,0,1,0,1.85H383.067Zm0,5.69a0.925,0.925,0,0,1,0-1.85h28.576a0.925,0.925,0,0,1,0,1.85H383.067Zm39.292,16.94a0.925,0.925,0,0,1,0-1.85h3.572a0.92,0.92,0,0,1,.921.92,0.93,0.93,0,0,1-.921.93h-3.572Zm-25,5.68a0.92,0.92,0,1,1,0-1.84h28.576a0.92,0.92,0,1,1,0,1.84H397.355Zm0,5.69a0.925,0.925,0,0,1,0-1.85h28.576a0.925,0.925,0,0,1,0,1.85H397.355Zm0,5.68a0.92,0.92,0,1,1,0-1.84H417.6a0.92,0.92,0,1,1,0,1.84H397.355Zm-8.067-13.22a0.923,0.923,0,0,1,1.845,0v13.1a3.811,3.811,0,0,0,1.129,2.71l0.043,0.05a3.831,3.831,0,0,0,2.669,1.08h27.385a0.906,0.906,0,0,1,.649.27l4.386,3.51,0-2.86a0.917,0.917,0,0,1,.92-0.91v-0.01a3.821,3.821,0,0,0,2.713-1.13h0a3.811,3.811,0,0,0,1.129-2.71V1679.5a3.846,3.846,0,0,0-1.129-2.71l-0.042-.04a3.839,3.839,0,0,0-2.669-1.09h-4.763a0.92,0.92,0,1,1,0-1.84h4.763a5.641,5.641,0,0,1,3.95,1.61l0.065,0.06A5.67,5.67,0,0,1,434,1679.5v19.05a5.676,5.676,0,0,1-1.669,4.02h0a5.656,5.656,0,0,1-3.093,1.59l0,3.92h0a0.956,0.956,0,0,1-.2.58,0.929,0.929,0,0,1-1.29.14l-5.7-4.56h-27.07a5.681,5.681,0,0,1-3.95-1.61l-0.066-.06a5.671,5.671,0,0,1-1.668-4.02v-13.1h0Zm-6.221-15.09a0.92,0.92,0,1,1,0-1.84h20.241a0.92,0.92,0,1,1,0,1.84H383.067Z" transform="translate(-375 -1650)"/>
</svg>
