<svg xmlns="http://www.w3.org/2000/svg" width="15" height="27" viewBox="0 0 15 27"><defs><style>.cls-1{fill:#2d3e50;fill-rule:evenodd}</style></defs><path id="Forma_1" data-name="Forma 1" class="cls-1" d="M614.435 575.005l-3.6-.006a6.232 6.232 0 0 0-6.654 6.645v3.064h-3.617a.559.559 0 0 0-.566.551v4.441a.559.559 0 0 0 .566.551h3.617v11.2a.558.558 0 0 0 .566.55h4.719a.558.558 0 0 0 .566-.55v-11.2h4.23a.558.558 0 0 0 .565-.551v-4.439a.543.543 0 0 0-.166-.389.571.571 0 0 0-.4-.162h-4.231v-2.6c0-1.248.306-1.882 1.977-1.882h2.423a.558.558 0 0 0 .566-.55v-4.122a.559.559 0 0 0-.561-.551z" transform="translate(-600 -575)"/></svg>