<svg xmlns="http://www.w3.org/2000/svg" width="55" height="59" viewBox="0 0 55 59"><defs><style>.cls-1{fill:#f6c640;fill-rule:evenodd}</style></defs><path id="Forma_1" data-name="Forma 1" class="cls-1" d="M178.2 1668.85h28.6v2.19h-28.6v-2.19zm0-6.55h28.6v2.18h-28.6v-2.18zm35.2 3.06v-7.43a4.394 4.394 0 0 0-4.4-4.37h-9.02l-7.48-6.56-7.48 6.56H176a4.394 4.394 0 0 0-4.4 4.37v7.43l-6.6 5.68v30.59a4.4 4.4 0 0 0 4.4 4.37h46.2a4.4 4.4 0 0 0 4.4-4.37v-30.59zm0 2.84l3.3 2.84-3.3 2.84v-5.68zm-20.9-18.36l4.18 3.72h-8.58zm-18.7 8.09a2.071 2.071 0 0 1 2.2-2.19h33a2.356 2.356 0 0 1 2.2 2.19v17.7l-7.04 6.33h-23.32l-7.04-6.12v-17.91zm23.1 30.59h-8.8l-4.84-4.37h18.26l-4.62 4.37zm-25.3-20.32v5.9l-3.3-3.06zm-3.74 34.96a1.976 1.976 0 0 1-.66-1.53v-28.41l17.6 15.3zm2.64.65l15.4-13.11h13.2l15.4 13.11h-44zm47.3-16.38v14.2a1.976 1.976 0 0 1-.66 1.53l-16.94-14.64 17.6-15.3v14.21zm-39.6-12.02h28.6v2.18h-28.6v-2.18z" transform="translate(-165 -1647)"/></svg>