<svg xmlns="http://www.w3.org/2000/svg" width="66" height="54" viewBox="0 0 66 54"><defs><style>.cls-1{fill:#f6c640;fill-rule:evenodd}</style></defs><path id="Forma_1" data-name="Forma 1" class="cls-1" d="M647.133 1681.19c-.7-.69-1.557-1.55-2.6-2.78v-10.4a12.561 12.561 0 0 0-1.432-5.38c-1.324-2.47-4.144-5.42-10.058-5.42h-11.434l-.717-1.45a3.141 3.141 0 0 0-1.7-5.76 3.073 3.073 0 0 1-4.385 0 3.141 3.141 0 0 0-1.7 5.76l-.718 1.45h-11.431c-5.914 0-8.734 2.95-10.058 5.42a12.544 12.544 0 0 0-1.432 5.38v10.4a40.453 40.453 0 0 1-2.6 2.78c-1.969 1.97-2.867 2.86-2.867 6.92a11.588 11.588 0 0 0 4.9 10.15c3.054 2.27 7.636 3.87 13.688 4.79a109.8 109.8 0 0 0 28.825 0c6.053-.92 10.635-2.52 13.689-4.79a11.588 11.588 0 0 0 4.9-10.15c-.003-4.06-.903-4.95-2.87-6.92zm-27.941-29.34a1.29 1.29 0 1 1-1.277 1.29 1.285 1.285 0 0 1 1.277-1.29zm-2.192 3.5a3.085 3.085 0 0 0 2.1.92l.465.94h-5.124l.465-.94a3.083 3.083 0 0 0 2.094-.92zm-2.193-3.5a1.29 1.29 0 1 1-1.277 1.29 1.286 1.286 0 0 1 1.277-1.29zm-23.507 16.16c0-.36.151-8.96 9.659-8.96h32.084c9.508 0 9.658 8.6 9.659 8.96v7.69a21.617 21.617 0 0 1-1.5-5.63l-.1-.57a9.649 9.649 0 0 0-5.722-7.41 12.129 12.129 0 0 0-4.507-1.04h-27.745a12.122 12.122 0 0 0-4.507 1.04 9.652 9.652 0 0 0-5.723 7.41l-.1.57a21.578 21.578 0 0 1-1.5 5.63v-7.69zm-5.469 20.1c0-3.29.492-3.78 2.323-5.6a44.39 44.39 0 0 0 2.929-3.16c2.412-2.88 2.85-5.29 3.514-8.95l.1-.56c1.247-6.83 8.139-6.94 8.43-6.94h3.007a47.438 47.438 0 0 1-2.706 16.15c-.415 1.14-.81 2.19-1.193 3.22-3.023 8.07-4.817 12.87-1.3 18.64-15.104-2.84-15.105-9.78-15.105-12.8zm17.606 13.21c-4.247-5.67-2.736-9.72.513-18.4.384-1.03.781-2.09 1.2-3.23a48.786 48.786 0 0 0 2.823-16.79h18.06a48.786 48.786 0 0 0 2.823 16.79c.417 1.14.814 2.2 1.2 3.23 3.249 8.68 4.76 12.73.514 18.4a98.071 98.071 0 0 1-13.565.83 96.437 96.437 0 0 1-13.569-.83zm40.582-4.55c-2.5 1.86-6.17 3.24-10.953 4.14 3.515-5.77 1.721-10.57-1.3-18.64-.382-1.03-.778-2.08-1.193-3.22a47.58 47.58 0 0 1-2.706-16.15h3.008a10.384 10.384 0 0 1 3.767.88 7.785 7.785 0 0 1 4.662 6.06l.1.56c.664 3.66 1.1 6.07 3.514 8.95 1.2 1.43 2.157 2.39 2.929 3.16 1.83 1.82 2.323 2.31 2.323 5.6a9.766 9.766 0 0 1-4.152 8.66z" transform="translate(-584 -1650)"/></svg>