<svg xmlns="http://www.w3.org/2000/svg" width="66" height="54" viewBox="0 0 66 54">
  <defs>
    <style>
      .cls-1 {
        fill: #f6c640;
        fill-rule: evenodd;
      }
    </style>
  </defs>
  <path id="Forma_1" data-name="Forma 1" class="cls-1" d="M647.133,1681.19c-0.7-.69-1.557-1.55-2.6-2.78v-10.4a12.561,12.561,0,0,0-1.432-5.38c-1.324-2.47-4.144-5.42-10.058-5.42H621.609l-0.717-1.45a3.141,3.141,0,0,0-1.7-5.76,3.073,3.073,0,0,1-4.385,0,3.141,3.141,0,0,0-1.7,5.76l-0.718,1.45H600.958c-5.914,0-8.734,2.95-10.058,5.42a12.544,12.544,0,0,0-1.432,5.38v10.4c-1.044,1.23-1.9,2.09-2.6,2.78-1.969,1.97-2.867,2.86-2.867,6.92a11.588,11.588,0,0,0,4.9,10.15c3.054,2.27,7.636,3.87,13.688,4.79a109.8,109.8,0,0,0,28.825,0c6.053-.92,10.635-2.52,13.689-4.79a11.588,11.588,0,0,0,4.9-10.15C650,1684.05,649.1,1683.16,647.133,1681.19Zm-27.941-29.34a1.29,1.29,0,1,1-1.277,1.29A1.285,1.285,0,0,1,619.192,1651.85Zm-2.192,3.5a3.085,3.085,0,0,0,2.1.92l0.465,0.94h-5.124l0.465-.94A3.083,3.083,0,0,0,617,1655.35Zm-2.193-3.5a1.29,1.29,0,1,1-1.277,1.29A1.286,1.286,0,0,1,614.807,1651.85ZM591.3,1668.01c0-.36.151-8.96,9.659-8.96h32.084c9.508,0,9.658,8.6,9.659,8.96v7.69a21.617,21.617,0,0,1-1.5-5.63l-0.1-.57a9.649,9.649,0,0,0-5.722-7.41,12.129,12.129,0,0,0-4.507-1.04H603.128a12.122,12.122,0,0,0-4.507,1.04,9.652,9.652,0,0,0-5.723,7.41l-0.1.57a21.578,21.578,0,0,1-1.5,5.63v-7.69h0Zm-5.469,20.1c0-3.29.492-3.78,2.323-5.6,0.772-.77,1.732-1.73,2.929-3.16,2.412-2.88,2.85-5.29,3.514-8.95l0.1-.56c1.247-6.83,8.139-6.94,8.43-6.94h3.007a47.438,47.438,0,0,1-2.706,16.15c-0.415,1.14-.81,2.19-1.193,3.22-3.023,8.07-4.817,12.87-1.3,18.64C585.831,1698.07,585.83,1691.13,585.83,1688.11Zm17.606,13.21c-4.247-5.67-2.736-9.72.513-18.4,0.384-1.03.781-2.09,1.2-3.23a48.786,48.786,0,0,0,2.823-16.79h18.06a48.786,48.786,0,0,0,2.823,16.79c0.417,1.14.814,2.2,1.2,3.23,3.249,8.68,4.76,12.73.514,18.4a98.071,98.071,0,0,1-13.565.83A96.437,96.437,0,0,1,603.436,1701.32Zm40.582-4.55c-2.5,1.86-6.17,3.24-10.953,4.14,3.515-5.77,1.721-10.57-1.3-18.64-0.382-1.03-.778-2.08-1.193-3.22a47.58,47.58,0,0,1-2.706-16.15h3.008a10.384,10.384,0,0,1,3.767.88,7.785,7.785,0,0,1,4.662,6.06l0.1,0.56c0.664,3.66,1.1,6.07,3.514,8.95,1.2,1.43,2.157,2.39,2.929,3.16,1.83,1.82,2.323,2.31,2.323,5.6A9.766,9.766,0,0,1,644.018,1696.77Z" transform="translate(-584 -1650)"/>
</svg>
