<svg xmlns="http://www.w3.org/2000/svg" width="27" height="22" viewBox="0 0 27 22"><defs><style>.cls-1{fill:#2d3e50;fill-rule:evenodd}</style></defs><path id="Forma_1" data-name="Forma 1" class="cls-1" d="M737.255 579.406a11.1 11.1 0 0 1-3.519 1.349 5.538 5.538 0 0 0-9.582 3.8 5.6 5.6 0 0 0 .143 1.265 15.707 15.707 0 0 1-11.416-5.8 5.574 5.574 0 0 0 1.714 7.416 5.52 5.52 0 0 1-2.508-.7v.07a5.558 5.558 0 0 0 4.442 5.448 5.505 5.505 0 0 1-2.5.094 5.55 5.55 0 0 0 5.171 3.852 11.1 11.1 0 0 1-6.879 2.376A11.515 11.515 0 0 1 711 598.5a15.655 15.655 0 0 0 8.491 2.5c10.188 0 15.759-8.465 15.759-15.806l-.018-.72A11.146 11.146 0 0 0 738 581.6a11.059 11.059 0 0 1-3.18.875 5.582 5.582 0 0 0 2.435-3.069z" transform="translate(-711 -579)"/></svg>