<svg xmlns="http://www.w3.org/2000/svg" width="29" height="17" viewBox="0 0 29 17"><defs><style>.cls-1{fill:#2d3e50;fill-rule:evenodd}</style></defs><path id="Forma_1" data-name="Forma 1" class="cls-1" d="M678.74 594.26a24.959 24.959 0 0 0-2.043-2.124c-.247-.237-.5-.482-.748-.726-.706-.7-.732-.963-.173-1.758.387-.548.8-1.1 1.194-1.628.359-.482.731-.98 1.088-1.479l.073-.1a11.353 11.353 0 0 0 1.761-3.137 1.431 1.431 0 0 0-.034-1.165 1.392 1.392 0 0 0-1.008-.56 2.638 2.638 0 0 0-.462-.031h-4.499a1.385 1.385 0 0 0-1.39.986 26.738 26.738 0 0 1-.834 1.95 16.031 16.031 0 0 1-2.548 3.978l-.048.053a.851.851 0 0 1-.4.312.18.18 0 0 1-.057-.01 1.234 1.234 0 0 1-.387-.943v-5.248a.49.49 0 0 0 0-.054 1.51 1.51 0 0 0-1.315-1.569.394.394 0 0 0-.077-.007h-4.64a1.858 1.858 0 0 0-1.564.778.614.614 0 0 0 .371 1.109 1.174 1.174 0 0 1 1 1.1 15.62 15.62 0 0 1 .062 3.67 3.125 3.125 0 0 1-.207.954.421.421 0 0 1-.205.258.518.518 0 0 1-.265-.118 3.951 3.951 0 0 1-.93-1.048 24.822 24.822 0 0 1-2.68-5.042 1.593 1.593 0 0 0-1.481-1.1 137.93 137.93 0 0 0-2.052-.017c-.7 0-1.348.007-1.982.02a1.245 1.245 0 0 0-1.114.49 1.286 1.286 0 0 0 .038 1.234 50.522 50.522 0 0 0 5.249 9.49 13.275 13.275 0 0 0 4.08 3.868 10.42 10.42 0 0 0 5.38 1.354c.232 0 .472 0 .715-.017a1.481 1.481 0 0 0 1.689-1.672 4.057 4.057 0 0 1 .382-1.769.472.472 0 0 1 .412-.339.755.755 0 0 1 .388.146 3.665 3.665 0 0 1 .664.6c.171.191.341.384.511.576.366.417.745.847 1.141 1.255a3.522 3.522 0 0 0 2.916 1.2h4.117a1.194 1.194 0 0 0 .969-.629 1.679 1.679 0 0 0-.014-1.576 8.466 8.466 0 0 0-1.043-1.515z" transform="translate(-651 -581)"/></svg>